<?xml version="1.0" standalone="no"?><!DOCTYPE svg PUBLIC "-//W3C//DTD SVG 1.1//EN" "http://www.w3.org/Graphics/SVG/1.1/DTD/svg11.dtd"><svg t="1688021375349" class="icon" viewBox="0 0 1024 1024" version="1.1" xmlns="http://www.w3.org/2000/svg" p-id="4112" xmlns:xlink="http://www.w3.org/1999/xlink" width="200" height="200"><path d="M206.528 547.072c1.28 25.216 26.368 13.504 37.76 5.632 10.88-7.488 14.08-1.28 14.976-16 0.64-9.728 1.728-19.392 1.216-29.12a71.424 71.424 0 0 0-47.616 12.16c-6.912 4.992-19.84 21.056-6.336 27.328" fill="#F6D2A2" p-id="4113"></path><path d="M206.528 547.072c3.648-1.344 7.552-2.304 10.048-5.632z" fill="#C6B198" p-id="4114"></path><path d="M264.704 246.848c-96.448-27.072-24.704-149.824 52.736-99.328l-52.736 99.328z m428.672-108.544c76.352-53.632 145.28 67.392 56.576 97.792l-56.576-97.792z" fill="#6AD7E5" p-id="4115"></path><path d="M709.76 857.28c19.392 11.968 54.848 48.256 25.792 65.92-27.968 25.6-43.648-28.16-68.16-35.584 10.56-14.336 23.936-27.456 42.368-30.336z m-346.496 40.96c-22.784 3.52-35.584 24.064-54.592 34.56-17.92 10.624-24.704-3.456-26.304-6.336-2.816-1.28-2.56 1.216-6.912-3.2-16.64-26.112 17.28-45.248 34.88-58.24 24.576-4.992 39.936 16.32 52.928 33.28z" fill="#F6D2A2" p-id="4116"></path><path d="M268.736 212.992C256 206.272 246.656 197.12 254.464 182.4c7.168-13.632 20.608-12.16 33.28-5.44l-19.008 36.032z m461.12-12.8c12.736-6.72 22.08-15.872 14.272-30.592-7.232-13.632-20.608-12.16-33.28-5.44l19.008 36.032z" fill="#000000" p-id="4117"></path><path d="M817.472 543.872c-1.28 25.216-26.368 13.568-37.76 5.696-10.88-7.488-14.08-1.28-14.976-16-0.64-9.728-1.728-19.456-1.216-29.184 16.384-1.472 34.176 2.368 47.616 12.16 6.912 4.992 19.84 21.056 6.336 27.328z" fill="#F6D2A2" p-id="4118"></path><path d="M817.472 543.872c-3.648-1.344-7.552-2.304-10.048-5.632z" fill="#C6B198" p-id="4119"></path><path d="M502.336 87.296c96.576 0 187.136 13.824 234.304 106.624 42.368 104 27.328 216.192 33.792 326.08 5.504 94.4 17.856 203.456-25.984 290.944-46.08 91.968-161.152 115.2-256 111.744-74.432-2.688-164.48-26.944-206.464-95.04-49.344-79.808-25.984-198.528-22.4-287.36 4.224-105.28-28.48-210.816 6.08-313.792 35.84-106.816 132.544-130.944 236.672-139.2" fill="#6AD7E5" p-id="4120"></path><path d="M519.36 216.96c17.344 100.8 182.144 74.112 158.464-27.52-21.248-91.2-164.224-65.92-158.464 27.52z m-196.864 16.32c22.4 87.68 162.944 65.28 157.696-22.784-6.4-105.408-179.2-85.12-157.696 22.784zM539.264 337.92c0.064 13.12 2.944 27.84 0.512 41.728-3.392 6.4-9.92 7.04-15.616 9.6a22.912 22.912 0 0 1-17.536-13.696c-1.92-15.936 0.768-31.36 1.28-47.232l31.36 9.6z" fill="#FFFFFF" p-id="4121"></path><path d="M337.472 218.944c0 6.848 2.56 13.376 6.976 18.176 4.48 4.8 10.496 7.552 16.768 7.552a22.848 22.848 0 0 0 16.768-7.552 26.88 26.88 0 0 0 6.976-18.176 26.88 26.88 0 0 0-6.976-18.176 22.848 22.848 0 0 0-16.768-7.488 22.848 22.848 0 0 0-16.768 7.488 26.88 26.88 0 0 0-6.976 18.176z" fill="#000000" p-id="4122"></path><path d="M366.464 224.768c0 0.832 0.128 1.664 0.384 2.496 0.256 0.768 0.64 1.536 1.216 2.176 0.512 0.64 1.152 1.088 1.792 1.408a4.928 4.928 0 0 0 4.352 0 5.632 5.632 0 0 0 1.792-1.408 6.72 6.72 0 0 0 1.28-2.176 7.488 7.488 0 0 0 0.32-2.56 7.488 7.488 0 0 0-0.384-2.496 6.72 6.72 0 0 0-1.216-2.112 5.632 5.632 0 0 0-1.792-1.472 4.928 4.928 0 0 0-4.352 0 5.632 5.632 0 0 0-1.792 1.472 6.72 6.72 0 0 0-1.28 2.112 7.488 7.488 0 0 0-0.32 2.56z" fill="#FFFFFF" p-id="4123"></path><path d="M536.704 212.544c0 6.848 2.432 13.44 6.848 18.176a22.272 22.272 0 0 0 16.512 7.552c6.144 0 12.096-2.688 16.448-7.552a27.072 27.072 0 0 0 6.848-18.176 27.072 27.072 0 0 0-6.848-18.112 22.272 22.272 0 0 0-16.448-7.552 22.272 22.272 0 0 0-16.512 7.552 27.072 27.072 0 0 0-6.848 18.112z" fill="#000000" p-id="4124"></path><path d="M565.12 218.368c0 1.728 0.64 3.392 1.664 4.608a5.12 5.12 0 0 0 3.84 1.92 5.12 5.12 0 0 0 3.904-1.92 7.168 7.168 0 0 0 1.6-4.608 7.616 7.616 0 0 0-0.384-2.56 6.784 6.784 0 0 0-1.216-2.112 5.568 5.568 0 0 0-1.792-1.472 4.736 4.736 0 0 0-4.224 0 5.568 5.568 0 0 0-1.792 1.472 6.72 6.72 0 0 0-1.152 2.112 7.616 7.616 0 0 0-0.448 2.56zM471.488 336.512c-10.368 25.088 5.76 75.264 33.856 38.272-2.048-15.936 0.704-31.36 1.28-47.232l-35.2 8.96z" fill="#FFFFFF" p-id="4125"></path><path d="M475.008 288.192c-19.264 1.664-35.072 24.576-25.024 42.752 13.248 24 42.88-2.112 61.44 0.32 21.184 0.448 38.656 22.464 55.68 3.968 19.008-20.544-8.128-40.576-29.44-49.536l-62.656 2.496z" fill="#F6D2A2" p-id="4126"></path><path d="M472.576 287.168c-1.408-33.408 62.272-37.568 69.76-9.6 7.552 27.904-66.624 34.368-69.76 9.6 0 0-2.56-19.776 0 0z" fill="#000000" p-id="4127"></path></svg>