<?xml version="1.0" standalone="no"?><!DOCTYPE svg PUBLIC "-//W3C//DTD SVG 1.1//EN" "http://www.w3.org/Graphics/SVG/1.1/DTD/svg11.dtd"><svg t="1648300867932" class="icon" viewBox="0 0 1024 1024" version="1.1" xmlns="http://www.w3.org/2000/svg" p-id="60100" width="48" height="48" xmlns:xlink="http://www.w3.org/1999/xlink"><defs><style type="text/css"></style></defs><path d="M154 862c-35.8 0-65-29.2-65-65V227c0-35.8 29.2-65 65-65h716c35.8 0 65 29.2 65 65v570c0 35.8-29.2 65-65 65H154z" fill="#E5E5E5" p-id="60101"></path><path d="M870 187c10.6 0 20.6 4.2 28.2 11.8 7.6 7.6 11.8 17.6 11.8 28.2v570c0 10.6-4.2 20.6-11.8 28.2-7.6 7.6-17.6 11.8-28.2 11.8H154c-10.6 0-20.6-4.2-28.2-11.8-7.6-7.6-11.8-17.6-11.8-28.2V227c0-10.6 4.2-20.6 11.8-28.2 7.6-7.6 17.6-11.8 28.2-11.8h716m0-50H154c-49.5 0-90 40.5-90 90v570c0 49.5 40.5 90 90 90h716c49.5 0 90-40.5 90-90V227c0-49.5-40.5-90-90-90z" fill="#3A3644" p-id="60102"></path><path d="M154 837c-7.4 0-14.3-2-20.2-5.5h575.7c77.2 0 140-62.8 140-140V187H870c22.1 0 40 17.9 40 40v570c0 22.1-17.9 40-40 40H154z" fill="#B2C5E4" p-id="60103"></path><path d="M849.4 456.6l-316.8 155-419.8-233.8 736.6-39.7z" fill="#C4C4C5" p-id="60104"></path><path d="M529 562.4c-7.7 0-15.3-1.9-22.1-5.5L89 337V227c0-35.8 29.2-65 65-65h716c35.8 0 65 29.2 65 65v127.9L551.1 557c-6.8 3.6-14.4 5.4-22.1 5.4z" fill="#FFFFFF" p-id="60105"></path><path d="M870 187c10.6 0 20.6 4.2 28.2 11.8 7.6 7.6 11.8 17.6 11.8 28.2v112.8l-370.5 195c-3.2 1.7-6.8 2.6-10.5 2.6-3.6 0-7.2-0.9-10.5-2.6L114 321.9V227c0-10.6 4.2-20.6 11.8-28.2 7.6-7.6 17.6-11.8 28.2-11.8h716m0-50H154c-49.5 0-90 40.5-90 90v125.1l431.3 227c10.6 5.6 22.2 8.3 33.7 8.3 11.6 0 23.2-2.8 33.7-8.3L960 370V227c0-49.5-40.5-90-90-90z" fill="#3A3644" p-id="60106"></path><path d="M741 719m-60 0a60 60 0 1 0 120 0 60 60 0 1 0-120 0Z" fill="#F46070" p-id="60107"></path><path d="M741 674c24.8 0 45 20.2 45 45s-20.2 45-45 45-45-20.2-45-45 20.2-45 45-45m0-30c-41.4 0-75 33.6-75 75s33.6 75 75 75 75-33.6 75-75-33.6-75-75-75z" fill="#3A3644" p-id="60108"></path><path d="M540 660.6h100v40H540zM460 730.6h180v40H460z" fill="#8E8C93" p-id="60109"></path><path d="M114 235.1V227c0-22.1 17.9-40 40-40h716c22.1 0 40 17.9 40 40v8.1H114z" fill="#E5E5E5" p-id="60110"></path><path d="M154 927c-35.8 0-65-29.2-65-65V162c0-35.8 29.2-65 65-65h716c35.8 0 65 29.2 65 65v700c0 35.8-29.2 65-65 65H154z" fill="#5E5E5E" p-id="60111"></path><path d="M870 122c10.6 0 20.6 4.2 28.2 11.8 7.6 7.6 11.8 17.6 11.8 28.2v700c0 10.6-4.2 20.6-11.8 28.2-7.6 7.6-17.6 11.8-28.2 11.8H154c-10.6 0-20.6-4.2-28.2-11.8-7.6-7.6-11.8-17.6-11.8-28.2V162c0-10.6 4.2-20.6 11.8-28.2 7.6-7.6 17.6-11.8 28.2-11.8h716m0-50H154c-49.5 0-90 40.5-90 90v700c0 49.5 40.5 90 90 90h716c49.5 0 90-40.5 90-90V162c0-49.5-40.5-90-90-90z" fill="#3A3644" p-id="60112"></path><path d="M366.5 574.4l70.3-6.8c4.2 23.6 12.8 40.9 25.8 52 12.9 11.1 30.4 16.6 52.4 16.6 23.3 0 40.8-4.9 52.6-14.8 11.8-9.8 17.7-21.4 17.7-34.5 0-8.5-2.5-15.7-7.4-21.6-5-5.9-13.6-11.1-26-15.5-8.5-2.9-27.8-8.1-57.9-15.6-38.7-9.6-65.9-21.4-81.5-35.4-22-19.7-33-43.7-33-72 0-18.2 5.2-35.3 15.5-51.1 10.3-15.9 25.2-28 44.7-36.3 19.4-8.3 42.9-12.5 70.4-12.5 44.9 0 78.7 9.8 101.4 29.5 22.7 19.7 34.6 46 35.8 78.9l-72.3 3.2c-3.1-18.4-9.7-31.6-19.9-39.7-10.2-8.1-25.4-12.1-45.8-12.1-21 0-37.4 4.3-49.3 12.9-7.7 5.5-11.5 12.9-11.5 22.2 0 8.5 3.6 15.7 10.7 21.7 9.1 7.7 31.3 15.6 66.4 23.9s61.2 16.9 78 25.8c16.8 8.9 30 21 39.6 36.4s14.3 34.4 14.3 57c0 20.5-5.7 39.7-17.1 57.6-11.4 17.9-27.5 31.2-48.3 39.9-20.8 8.7-46.8 13.1-77.9 13.1-45.3 0-80-10.5-104.2-31.4-24.3-20.9-38.8-51.4-43.5-91.4z" fill="#FFA646" p-id="60113"></path></svg>