<?xml version="1.0" standalone="no"?><!DOCTYPE svg PUBLIC "-//W3C//DTD SVG 1.1//EN" "http://www.w3.org/Graphics/SVG/1.1/DTD/svg11.dtd"><svg t="1648301073584" class="icon" viewBox="0 0 1024 1024" version="1.1" xmlns="http://www.w3.org/2000/svg" p-id="65985" width="48" height="48" xmlns:xlink="http://www.w3.org/1999/xlink"><defs><style type="text/css"></style></defs><path d="M507.904 570.368c-35.84-4.608-64-35.328-64-73.216 0-37.376 28.16-68.608 64-73.216V299.008c-107.008 7.168-192 96.768-192 206.336s58.368 185.344 192 235.52v-170.496z m21.504-318.976V424.96c34.816 5.632 61.44 35.84 61.44 72.192s-26.624 66.56-61.44 72.192V711.68c111.104-4.096 199.68-94.72 199.68-206.336 0.512-112.128-71.168-186.368-199.68-253.952z" fill="#FF9C00" p-id="65986"></path><path d="M275.968 689.664c-43.52-55.808-68.608-126.464-65.536-202.752C216.576 325.632 348.16 194.048 509.952 187.392c76.8-3.072 147.456 22.016 202.752 65.536l105.472-105.472C733.696 74.752 622.08 32.768 501.248 36.352 258.048 46.08 62.464 245.76 57.856 488.448c-0.512 40.96 4.096 81.408 13.824 119.808 16.896 68.096 21.504 203.776-48.128 331.776-1.024 2.048 1.536 4.608 3.584 3.072l248.832-253.44z m487.424-386.56c47.104 58.368 74.24 134.144 69.12 216.064-9.728 155.136-135.168 281.088-290.816 290.816-81.92 5.12-157.696-21.504-216.064-69.12l-105.984 105.984c84.992 72.192 195.584 114.688 316.928 109.568 242.688-9.728 438.272-210.432 441.856-453.12 0.512-53.248-7.168-103.936-23.552-151.04-17.92-52.224-13.312-185.344 63.488-299.52 1.536-3.072-1.536-5.632-4.096-3.584l-250.88 253.952z" fill="#FF9C00" p-id="65987"></path></svg>